<svg width="960" height="1480" viewBox="0 0 960 1480" xmlns="http://www.w3.org/2000/svg" font-family="Segoe UI, Arial, sans-serif">
<defs>
  <marker id="arr" viewBox="0 0 10 10" refX="8" refY="5" markerWidth="7" markerHeight="7" orient="auto-start-reverse">
    <path d="M2 1L8 5L2 9" fill="none" stroke="context-stroke" stroke-width="1.5" stroke-linecap="round" stroke-linejoin="round"/>
  </marker>
</defs>

<rect width="960" height="1480" fill="#F8F7F5"/>

<!-- ══════ TITLE BLOCK ══════ -->
<rect x="0" y="0" width="960" height="66" fill="#0078D4"/>
<text x="480" y="26" text-anchor="middle" font-size="21" font-weight="700" fill="#FFFFFF">Micro Services Project-1 — Azure Edition</text>
<text x="480" y="52" text-anchor="middle" font-size="12" fill="#B5D4F4">Terraform · AKS · GitHub · Jenkins CI · ArgoCD CD · Azure Container Registry · Prometheus · Grafana</text>

<!-- ══════ COLOUR LEGEND ══════ -->
<rect x="20" y="76" width="920" height="28" fill="#F0F0EE" rx="4"/>
<rect x="30"  y="83" width="13" height="13" rx="2" fill="#FAEEDA" stroke="#BA7517" stroke-width="0.8"/>
<text x="48"  y="93" font-size="10" font-weight="600" fill="#633806">Phase 1 – Infra (Azure)</text>
<rect x="175" y="83" width="13" height="13" rx="2" fill="#E6F1FB" stroke="#185FA5" stroke-width="0.8"/>
<text x="193" y="93" font-size="10" font-weight="600" fill="#0C447C">Phase 2 – CI (Jenkins)</text>
<rect x="330" y="83" width="13" height="13" rx="2" fill="#E1F5EE" stroke="#0F6E56" stroke-width="0.8"/>
<text x="348" y="93" font-size="10" font-weight="600" fill="#085041">Security / Quality gates</text>
<rect x="510" y="83" width="13" height="13" rx="2" fill="#EAF3DE" stroke="#3B6D11" stroke-width="0.8"/>
<text x="528" y="93" font-size="10" font-weight="600" fill="#27500A">Phase 3 – CD (ArgoCD)</text>
<rect x="680" y="83" width="13" height="13" rx="2" fill="#EEEDFE" stroke="#534AB7" stroke-width="0.8"/>
<text x="698" y="93" font-size="10" font-weight="600" fill="#3C3489">Phase 4 – Monitor</text>
<rect x="820" y="83" width="13" height="13" rx="2" fill="#FAEEDA" stroke="#BA7517" stroke-width="0.8"/>
<text x="838" y="93" font-size="10" font-weight="600" fill="#633806">Notify / Verify</text>

<line x1="20" y1="108" x2="940" y2="108" stroke="#D3D1C7" stroke-width="0.8"/>

<!-- ══════════════════════════════════════════════════════════════
     PHASE 1 — INFRASTRUCTURE PROVISIONING
════════════════════════════════════════════════════════════════ -->
<rect x="20"  y="114" width="920" height="30" rx="6" fill="#BA7517"/>
<text x="480" y="129" text-anchor="middle" font-size="13" font-weight="700" fill="#FFFFFF" dominant-baseline="central">PHASE 1 — Infrastructure Provisioning  (Terraform + AKS)</text>

<rect x="28" y="158" width="158" height="58" rx="8" fill="#FAEEDA" stroke="#BA7517" stroke-width="1"/>
<text x="107" y="180" text-anchor="middle" font-size="13" font-weight="700" fill="#633806" dominant-baseline="central">Terraform</text>
<text x="107" y="200" text-anchor="middle" font-size="11" fill="#854F0B" dominant-baseline="central">VNet · Subnets · NSGs</text>

<line x1="186" y1="187" x2="206" y2="187" stroke="#BA7517" stroke-width="1.5" marker-end="url(#arr)"/>

<rect x="206" y="158" width="168" height="58" rx="8" fill="#FAEEDA" stroke="#BA7517" stroke-width="1"/>
<text x="290" y="180" text-anchor="middle" font-size="13" font-weight="700" fill="#633806" dominant-baseline="central">Azure AKS</text>
<text x="290" y="200" text-anchor="middle" font-size="11" fill="#854F0B" dominant-baseline="central">K8s cluster on Azure</text>

<line x1="374" y1="187" x2="394" y2="187" stroke="#BA7517" stroke-width="1.5" marker-end="url(#arr)"/>

<rect x="394" y="158" width="216" height="58" rx="8" fill="#FAEEDA" stroke="#BA7517" stroke-width="1"/>
<text x="502" y="177" text-anchor="middle" font-size="13" font-weight="700" fill="#633806" dominant-baseline="central">Configure cluster</text>
<text x="502" y="197" text-anchor="middle" font-size="11" fill="#854F0B" dominant-baseline="central">CNI · Ingress · Metrics · OIDC · Helm</text>

<line x1="610" y1="187" x2="630" y2="187" stroke="#BA7517" stroke-width="1.5" marker-end="url(#arr)"/>

<rect x="630" y="158" width="176" height="58" rx="8" fill="#EAF3DE" stroke="#3B6D11" stroke-width="1"/>
<text x="718" y="180" text-anchor="middle" font-size="13" font-weight="700" fill="#27500A" dominant-baseline="central">Validate cluster</text>
<text x="718" y="200" text-anchor="middle" font-size="11" fill="#3B6D11" dominant-baseline="central">Deploy test pods · verify</text>

<line x1="480" y1="216" x2="480" y2="238" stroke="#888780" stroke-width="1" stroke-dasharray="4 3" marker-end="url(#arr)"/>
<text x="502" y="231" font-size="10" fill="#888780">cluster ready</text>

<!-- ══════════════════════════════════════════════════════════════
     PHASE 2 — CI PIPELINE  (GitHub → Jenkins → ACR)
════════════════════════════════════════════════════════════════ -->
<rect x="20"  y="244" width="920" height="30" rx="6" fill="#185FA5"/>
<text x="480" y="259" text-anchor="middle" font-size="13" font-weight="700" fill="#FFFFFF" dominant-baseline="central">PHASE 2 — CI Pipeline  (GitHub → Jenkins → ACR)</text>

<!-- ROW A: left → right -->
<!-- Dev push — GITHUB -->
<rect x="28"  y="290" width="118" height="58" rx="8" fill="#F1EFE8" stroke="#2C2C2A" stroke-width="1"/>
<text x="87"  y="312" text-anchor="middle" font-size="13" font-weight="700" fill="#2C2C2A" dominant-baseline="central">Dev push</text>
<text x="87"  y="332" text-anchor="middle" font-size="11" fill="#5F5E5A" dominant-baseline="central">GitHub repo</text>

<line x1="146" y1="319" x2="166" y2="319" stroke="#888780" stroke-width="1.5" marker-end="url(#arr)"/>

<!-- Jenkins -->
<rect x="166" y="290" width="128" height="58" rx="8" fill="#E6F1FB" stroke="#185FA5" stroke-width="1"/>
<text x="230" y="312" text-anchor="middle" font-size="13" font-weight="700" fill="#0C447C" dominant-baseline="central">Jenkins</text>
<text x="230" y="332" text-anchor="middle" font-size="11" fill="#185FA5" dominant-baseline="central">Webhook trigger</text>

<line x1="294" y1="319" x2="314" y2="319" stroke="#185FA5" stroke-width="1.5" marker-end="url(#arr)"/>

<!-- Build -->
<rect x="314" y="290" width="116" height="58" rx="8" fill="#E6F1FB" stroke="#185FA5" stroke-width="1"/>
<text x="372" y="312" text-anchor="middle" font-size="13" font-weight="700" fill="#0C447C" dominant-baseline="central">Build</text>
<text x="372" y="332" text-anchor="middle" font-size="11" fill="#185FA5" dominant-baseline="central">Compile + test</text>

<line x1="430" y1="319" x2="450" y2="319" stroke="#185FA5" stroke-width="1.5" marker-end="url(#arr)"/>

<!-- SonarQube -->
<rect x="450" y="290" width="128" height="58" rx="8" fill="#E1F5EE" stroke="#0F6E56" stroke-width="1"/>
<text x="514" y="312" text-anchor="middle" font-size="13" font-weight="700" fill="#085041" dominant-baseline="central">SonarQube</text>
<text x="514" y="332" text-anchor="middle" font-size="11" fill="#0F6E56" dominant-baseline="central">Code quality gate</text>

<line x1="578" y1="319" x2="598" y2="319" stroke="#0F6E56" stroke-width="1.5" marker-end="url(#arr)"/>

<!-- OWASP -->
<rect x="598" y="290" width="116" height="58" rx="8" fill="#E1F5EE" stroke="#0F6E56" stroke-width="1"/>
<text x="656" y="312" text-anchor="middle" font-size="13" font-weight="700" fill="#085041" dominant-baseline="central">OWASP</text>
<text x="656" y="332" text-anchor="middle" font-size="11" fill="#0F6E56" dominant-baseline="central">Dependency check</text>

<line x1="714" y1="319" x2="734" y2="319" stroke="#0F6E56" stroke-width="1.5" marker-end="url(#arr)"/>

<!-- Trivy scan -->
<rect x="734" y="290" width="118" height="58" rx="8" fill="#E1F5EE" stroke="#0F6E56" stroke-width="1"/>
<text x="793" y="312" text-anchor="middle" font-size="13" font-weight="700" fill="#085041" dominant-baseline="central">Trivy scan</text>
<text x="793" y="332" text-anchor="middle" font-size="11" fill="#0F6E56" dominant-baseline="central">FS + image scan</text>

<!-- turn corner right → down → left -->
<line x1="852" y1="319" x2="880" y2="319" stroke="#0F6E56" stroke-width="1.5"/>
<line x1="880" y1="319" x2="880" y2="380" stroke="#0F6E56" stroke-width="1.5"/>
<line x1="880" y1="380" x2="860" y2="380" stroke="#0F6E56" stroke-width="1.5" marker-end="url(#arr)"/>

<!-- ROW B: right → left -->
<!-- Docker build -->
<rect x="726" y="352" width="134" height="58" rx="8" fill="#E6F1FB" stroke="#185FA5" stroke-width="1"/>
<text x="793" y="374" text-anchor="middle" font-size="13" font-weight="700" fill="#0C447C" dominant-baseline="central">Docker build</text>
<text x="793" y="394" text-anchor="middle" font-size="11" fill="#185FA5" dominant-baseline="central">Tag with commit SHA</text>

<line x1="726" y1="381" x2="706" y2="381" stroke="#185FA5" stroke-width="1.5" marker-end="url(#arr)"/>

<!-- ACR push -->
<rect x="574" y="352" width="132" height="58" rx="8" fill="#E6F1FB" stroke="#185FA5" stroke-width="1"/>
<text x="640" y="372" text-anchor="middle" font-size="13" font-weight="700" fill="#0C447C" dominant-baseline="central">ACR push</text>
<text x="640" y="392" text-anchor="middle" font-size="11" fill="#185FA5" dominant-baseline="central">Azure Container Registry</text>

<line x1="574" y1="381" x2="554" y2="381" stroke="#185FA5" stroke-width="1.5" marker-end="url(#arr)"/>

<!-- Update manifest -->
<rect x="416" y="352" width="138" height="58" rx="8" fill="#F1EFE8" stroke="#5F5E5A" stroke-width="1"/>
<text x="485" y="374" text-anchor="middle" font-size="13" font-weight="700" fill="#2C2C2A" dominant-baseline="central">Update manifest</text>
<text x="485" y="394" text-anchor="middle" font-size="11" fill="#5F5E5A" dominant-baseline="central">New image tag in Git</text>

<line x1="416" y1="381" x2="396" y2="381" stroke="#888780" stroke-width="1.5" marker-end="url(#arr)"/>

<!-- GitHub manifest repo (was Azure Repos) -->
<rect x="264" y="352" width="132" height="58" rx="8" fill="#F1EFE8" stroke="#2C2C2A" stroke-width="1"/>
<text x="330" y="374" text-anchor="middle" font-size="13" font-weight="700" fill="#2C2C2A" dominant-baseline="central">GitHub</text>
<text x="330" y="394" text-anchor="middle" font-size="11" fill="#5F5E5A" dominant-baseline="central">Manifest repo</text>

<line x1="264" y1="381" x2="244" y2="381" stroke="#888780" stroke-width="1.5" marker-end="url(#arr)"/>

<!-- Slack notify CI -->
<rect x="100" y="352" width="144" height="58" rx="8" fill="#FAEEDA" stroke="#BA7517" stroke-width="1"/>
<text x="172" y="374" text-anchor="middle" font-size="13" font-weight="700" fill="#633806" dominant-baseline="central">Slack notify</text>
<text x="172" y="394" text-anchor="middle" font-size="11" fill="#854F0B" dominant-baseline="central">Build + scan result</text>

<!-- pipeline stages strip -->
<rect x="20" y="426" width="920" height="28" rx="5" fill="#EBF0F8" stroke="#B5D4F4" stroke-width="0.8"/>
<text x="480" y="440" text-anchor="middle" font-size="10.5" fill="#0C447C" dominant-baseline="central">Pipeline stages: Clean → Code → SonarQube → Quality gate → OWASP → Trivy FS → Docker build → Trivy image → Tag/push → Update manifest → Slack</text>

<!-- ══════════════════════════════════════════════════════════════
     PHASE 3 — CD PIPELINE  (GitHub → ArgoCD → AKS)
════════════════════════════════════════════════════════════════ -->
<rect x="20"  y="466" width="920" height="30" rx="6" fill="#0F6E56"/>
<text x="480" y="481" text-anchor="middle" font-size="13" font-weight="700" fill="#FFFFFF" dominant-baseline="central">PHASE 3 — CD Pipeline  (GitOps: GitHub → ArgoCD → AKS)</text>

<!-- GitHub manifest trigger (was Azure Repos) -->
<rect x="28"  y="514" width="148" height="60" rx="8" fill="#F1EFE8" stroke="#2C2C2A" stroke-width="1"/>
<text x="102" y="538" text-anchor="middle" font-size="13" font-weight="700" fill="#2C2C2A" dominant-baseline="central">GitHub</text>
<text x="102" y="558" text-anchor="middle" font-size="11" fill="#5F5E5A" dominant-baseline="central">Manifest updated</text>

<line x1="176" y1="544" x2="196" y2="544" stroke="#0F6E56" stroke-width="1.5" marker-end="url(#arr)"/>

<!-- ArgoCD -->
<rect x="196" y="514" width="160" height="60" rx="8" fill="#E1F5EE" stroke="#0F6E56" stroke-width="1"/>
<text x="276" y="538" text-anchor="middle" font-size="13" font-weight="700" fill="#085041" dominant-baseline="central">ArgoCD</text>
<text x="276" y="558" text-anchor="middle" font-size="11" fill="#0F6E56" dominant-baseline="central">Watches + syncs Git</text>

<line x1="356" y1="544" x2="376" y2="544" stroke="#0F6E56" stroke-width="1.5" marker-end="url(#arr)"/>

<!-- Azure AKS -->
<rect x="376" y="514" width="160" height="60" rx="8" fill="#E1F5EE" stroke="#0F6E56" stroke-width="1"/>
<text x="456" y="538" text-anchor="middle" font-size="13" font-weight="700" fill="#085041" dominant-baseline="central">Azure AKS</text>
<text x="456" y="558" text-anchor="middle" font-size="11" fill="#0F6E56" dominant-baseline="central">Pods updated</text>

<line x1="536" y1="544" x2="556" y2="544" stroke="#185FA5" stroke-width="1.5" marker-end="url(#arr)"/>

<!-- Azure LB DNS verify -->
<rect x="556" y="514" width="188" height="60" rx="8" fill="#E6F1FB" stroke="#185FA5" stroke-width="1"/>
<text x="650" y="535" text-anchor="middle" font-size="13" font-weight="700" fill="#0C447C" dominant-baseline="central">Azure LB DNS verify</text>
<text x="650" y="555" text-anchor="middle" font-size="11" fill="#185FA5" dominant-baseline="central">App health check</text>

<line x1="744" y1="544" x2="764" y2="544" stroke="#BA7517" stroke-width="1.5" marker-end="url(#arr)"/>

<!-- Slack notify CD -->
<rect x="764" y="514" width="148" height="60" rx="8" fill="#FAEEDA" stroke="#BA7517" stroke-width="1"/>
<text x="838" y="538" text-anchor="middle" font-size="13" font-weight="700" fill="#633806" dominant-baseline="central">Slack notify</text>
<text x="838" y="558" text-anchor="middle" font-size="11" fill="#854F0B" dominant-baseline="central">Deploy success</text>

<!-- deployment namespaces sub-section -->
<line x1="456" y1="574" x2="456" y2="600" stroke="#888780" stroke-width="1" stroke-dasharray="4 3" marker-end="url(#arr)"/>

<rect x="20"  y="608" width="920" height="90" rx="8" fill="none" stroke="#B4B2A9" stroke-width="0.8" stroke-dasharray="5 3"/>
<text x="40"  y="626" font-size="12" font-weight="700" fill="#2C2C2A" dominant-baseline="central">Deployment namespaces</text>

<rect x="40"  y="638" width="190" height="36" rx="6" fill="#E6F1FB" stroke="#185FA5" stroke-width="1"/>
<text x="135" y="656" text-anchor="middle" font-size="12" font-weight="600" fill="#0C447C" dominant-baseline="central">Test / UAT namespace</text>

<line x1="230" y1="656" x2="258" y2="656" stroke="#185FA5" stroke-width="1.5" marker-end="url(#arr)"/>
<text x="244" y="649" text-anchor="middle" font-size="10" fill="#888780">pass</text>

<rect x="258" y="638" width="190" height="36" rx="6" fill="#EAF3DE" stroke="#3B6D11" stroke-width="1"/>
<text x="353" y="656" text-anchor="middle" font-size="12" font-weight="600" fill="#27500A" dominant-baseline="central">Production namespace</text>

<line x1="448" y1="656" x2="476" y2="656" stroke="#3B6D11" stroke-width="1.5" marker-end="url(#arr)"/>

<rect x="476" y="638" width="186" height="36" rx="6" fill="#FAEEDA" stroke="#BA7517" stroke-width="1"/>
<text x="569" y="656" text-anchor="middle" font-size="12" font-weight="600" fill="#633806" dominant-baseline="central">Slack notification</text>

<!-- ══════════════════════════════════════════════════════════════
     PHASE 4 — MONITORING
════════════════════════════════════════════════════════════════ -->
<rect x="20"  y="714" width="920" height="30" rx="6" fill="#534AB7"/>
<text x="480" y="729" text-anchor="middle" font-size="13" font-weight="700" fill="#FFFFFF" dominant-baseline="central">PHASE 4 — Monitoring  (Prometheus + Grafana + Azure Monitor)</text>

<rect x="80"  y="762" width="190" height="60" rx="8" fill="#EEEDFE" stroke="#534AB7" stroke-width="1"/>
<text x="175" y="786" text-anchor="middle" font-size="13" font-weight="700" fill="#3C3489" dominant-baseline="central">Prometheus</text>
<text x="175" y="806" text-anchor="middle" font-size="11" fill="#534AB7" dominant-baseline="central">Metrics scraping</text>

<line x1="270" y1="792" x2="298" y2="792" stroke="#534AB7" stroke-width="1.5" marker-end="url(#arr)"/>

<rect x="298" y="762" width="190" height="60" rx="8" fill="#EEEDFE" stroke="#534AB7" stroke-width="1"/>
<text x="393" y="786" text-anchor="middle" font-size="13" font-weight="700" fill="#3C3489" dominant-baseline="central">Grafana</text>
<text x="393" y="806" text-anchor="middle" font-size="11" fill="#534AB7" dominant-baseline="central">Dashboards + alerts</text>

<line x1="488" y1="792" x2="516" y2="792" stroke="#534AB7" stroke-width="1.5" marker-end="url(#arr)"/>

<rect x="516" y="762" width="196" height="60" rx="8" fill="#EEEDFE" stroke="#534AB7" stroke-width="1"/>
<text x="614" y="783" text-anchor="middle" font-size="13" font-weight="700" fill="#3C3489" dominant-baseline="central">Azure Monitor</text>
<text x="614" y="803" text-anchor="middle" font-size="11" fill="#534AB7" dominant-baseline="central">Logs · metrics · alerts</text>

<line x1="712" y1="792" x2="738" y2="792" stroke="#5F5E5A" stroke-width="1.5" marker-end="url(#arr)"/>

<rect x="738" y="762" width="164" height="60" rx="8" fill="#F1EFE8" stroke="#5F5E5A" stroke-width="1"/>
<text x="820" y="786" text-anchor="middle" font-size="13" font-weight="700" fill="#2C2C2A" dominant-baseline="central">Tomcat</text>
<text x="820" y="806" text-anchor="middle" font-size="11" fill="#5F5E5A" dominant-baseline="central">App server</text>

<!-- ══════════════════════════════════════════════════════════════
     TOOLS REFERENCE TABLE
════════════════════════════════════════════════════════════════ -->
<rect x="20"  y="848" width="920" height="30" rx="6" fill="#444441"/>
<text x="480" y="863" text-anchor="middle" font-size="13" font-weight="700" fill="#FFFFFF" dominant-baseline="central">Tools Reference — Azure + GitHub Stack</text>

<rect x="20"  y="882" width="920" height="546" rx="8" fill="none" stroke="#D3D1C7" stroke-width="1"/>

<!-- LEFT COLUMN -->
<text x="48" y="910" font-size="12" font-weight="700" fill="#1a1a1a">Cloud platform</text>
<rect x="48"  y="918" width="106" height="24" rx="4" fill="#FAEEDA" stroke="#BA7517" stroke-width="0.8"/>
<text x="101" y="930" text-anchor="middle" font-size="11" fill="#633806" dominant-baseline="central">Microsoft Azure</text>

<text x="48" y="960" font-size="12" font-weight="700" fill="#1a1a1a">Infrastructure</text>
<rect x="48"  y="968" width="100" height="24" rx="4" fill="#FAEEDA" stroke="#BA7517" stroke-width="0.8"/>
<text x="98"  y="980" text-anchor="middle" font-size="11" fill="#633806" dominant-baseline="central">Terraform</text>
<rect x="158" y="968" width="80"  height="24" rx="4" fill="#FAEEDA" stroke="#BA7517" stroke-width="0.8"/>
<text x="198" y="980" text-anchor="middle" font-size="11" fill="#633806" dominant-baseline="central">Azure AKS</text>

<!-- Source control — GITHUB (was Azure Repos) -->
<text x="48" y="1012" font-size="12" font-weight="700" fill="#1a1a1a">Source control</text>
<rect x="48"  y="1020" width="60"  height="24" rx="4" fill="#F1EFE8" stroke="#2C2C2A" stroke-width="0.8"/>
<text x="78"  y="1032" text-anchor="middle" font-size="11" fill="#2C2C2A" dominant-baseline="central">Git</text>
<rect x="118" y="1020" width="90"  height="24" rx="4" fill="#F1EFE8" stroke="#2C2C2A" stroke-width="0.8"/>
<text x="163" y="1032" text-anchor="middle" font-size="11" fill="#2C2C2A" dominant-baseline="central">GitHub</text>

<text x="48" y="1062" font-size="12" font-weight="700" fill="#1a1a1a">CI tool</text>
<rect x="48"  y="1070" width="90"  height="24" rx="4" fill="#E6F1FB" stroke="#185FA5" stroke-width="0.8"/>
<text x="93"  y="1082" text-anchor="middle" font-size="11" fill="#0C447C" dominant-baseline="central">Jenkins</text>

<text x="48" y="1112" font-size="12" font-weight="700" fill="#1a1a1a">CD tool</text>
<rect x="48"  y="1120" width="90"  height="24" rx="4" fill="#E1F5EE" stroke="#0F6E56" stroke-width="0.8"/>
<text x="93"  y="1132" text-anchor="middle" font-size="11" fill="#085041" dominant-baseline="central">ArgoCD</text>

<text x="48" y="1162" font-size="12" font-weight="700" fill="#1a1a1a">Container registry</text>
<rect x="48"  y="1170" width="180" height="24" rx="4" fill="#E6F1FB" stroke="#185FA5" stroke-width="0.8"/>
<text x="138" y="1182" text-anchor="middle" font-size="11" fill="#0C447C" dominant-baseline="central">Azure Container Registry</text>

<text x="48" y="1212" font-size="12" font-weight="700" fill="#1a1a1a">Package manager</text>
<rect x="48"  y="1220" width="70"  height="24" rx="4" fill="#F1EFE8" stroke="#5F5E5A" stroke-width="0.8"/>
<text x="83"  y="1232" text-anchor="middle" font-size="11" fill="#2C2C2A" dominant-baseline="central">Helm</text>

<text x="48" y="1262" font-size="12" font-weight="700" fill="#1a1a1a">App server</text>
<rect x="48"  y="1270" width="90"  height="24" rx="4" fill="#F1EFE8" stroke="#5F5E5A" stroke-width="0.8"/>
<text x="93"  y="1282" text-anchor="middle" font-size="11" fill="#2C2C2A" dominant-baseline="central">Tomcat</text>

<!-- RIGHT COLUMN -->
<text x="500" y="910" font-size="12" font-weight="700" fill="#1a1a1a">Monitoring</text>
<rect x="500" y="918" width="110" height="24" rx="4" fill="#EEEDFE" stroke="#534AB7" stroke-width="0.8"/>
<text x="555" y="930" text-anchor="middle" font-size="11" fill="#3C3489" dominant-baseline="central">Prometheus</text>
<rect x="620" y="918" width="90"  height="24" rx="4" fill="#EEEDFE" stroke="#534AB7" stroke-width="0.8"/>
<text x="665" y="930" text-anchor="middle" font-size="11" fill="#3C3489" dominant-baseline="central">Grafana</text>
<rect x="720" y="918" width="130" height="24" rx="4" fill="#EEEDFE" stroke="#534AB7" stroke-width="0.8"/>
<text x="785" y="930" text-anchor="middle" font-size="11" fill="#3C3489" dominant-baseline="central">Azure Monitor</text>

<text x="500" y="960" font-size="12" font-weight="700" fill="#1a1a1a">Code quality</text>
<rect x="500" y="968" width="110" height="24" rx="4" fill="#E1F5EE" stroke="#0F6E56" stroke-width="0.8"/>
<text x="555" y="980" text-anchor="middle" font-size="11" fill="#085041" dominant-baseline="central">SonarQube</text>

<text x="500" y="1012" font-size="12" font-weight="700" fill="#1a1a1a">Image / FS scan</text>
<rect x="500" y="1020" width="70"  height="24" rx="4" fill="#E1F5EE" stroke="#0F6E56" stroke-width="0.8"/>
<text x="535" y="1032" text-anchor="middle" font-size="11" fill="#085041" dominant-baseline="central">Trivy</text>

<text x="500" y="1062" font-size="12" font-weight="700" fill="#1a1a1a">Security scan</text>
<rect x="500" y="1070" width="90"  height="24" rx="4" fill="#E1F5EE" stroke="#0F6E56" stroke-width="0.8"/>
<text x="545" y="1082" text-anchor="middle" font-size="11" fill="#085041" dominant-baseline="central">OWASP</text>

<text x="500" y="1112" font-size="12" font-weight="700" fill="#1a1a1a">Notification</text>
<rect x="500" y="1120" width="80"  height="24" rx="4" fill="#FAEEDA" stroke="#BA7517" stroke-width="0.8"/>
<text x="540" y="1132" text-anchor="middle" font-size="11" fill="#633806" dominant-baseline="central">Slack</text>

<text x="500" y="1162" font-size="12" font-weight="700" fill="#1a1a1a">Networking</text>
<rect x="500" y="1170" width="80"  height="24" rx="4" fill="#FAEEDA" stroke="#BA7517" stroke-width="0.8"/>
<text x="540" y="1182" text-anchor="middle" font-size="11" fill="#633806" dominant-baseline="central">Azure VNet</text>
<rect x="590" y="1170" width="100" height="24" rx="4" fill="#FAEEDA" stroke="#BA7517" stroke-width="0.8"/>
<text x="640" y="1182" text-anchor="middle" font-size="11" fill="#633806" dominant-baseline="central">Azure LB</text>
<rect x="700" y="1170" width="100" height="24" rx="4" fill="#FAEEDA" stroke="#BA7517" stroke-width="0.8"/>
<text x="750" y="1182" text-anchor="middle" font-size="11" fill="#633806" dominant-baseline="central">Azure NSG</text>

<text x="500" y="1212" font-size="12" font-weight="700" fill="#1a1a1a">Identity</text>
<rect x="500" y="1220" width="140" height="24" rx="4" fill="#E6F1FB" stroke="#185FA5" stroke-width="0.8"/>
<text x="570" y="1232" text-anchor="middle" font-size="11" fill="#0C447C" dominant-baseline="central">Azure Active Directory</text>
<rect x="650" y="1220" width="80"  height="24" rx="4" fill="#E6F1FB" stroke="#185FA5" stroke-width="0.8"/>
<text x="690" y="1232" text-anchor="middle" font-size="11" fill="#0C447C" dominant-baseline="central">OIDC / RBAC</text>

<!-- ══════ CONCEPT MAPPING CALLOUT ══════ -->
<rect x="20" y="1320" width="920" height="118" rx="8" fill="#EBF4FF" stroke="#185FA5" stroke-width="1"/>
<text x="480" y="1340" text-anchor="middle" font-size="12" font-weight="700" fill="#0C447C" dominant-baseline="central">AWS → Azure concept mapping (what changed from the original project)</text>

<text x="40"  y="1364" font-size="11" fill="#444441">EKS / KOPS</text>
<text x="136" y="1364" font-size="11" fill="#888780">→</text>
<text x="152" y="1364" font-size="11" font-weight="600" fill="#0C447C">Azure AKS</text>

<text x="290" y="1364" font-size="11" fill="#444441">Docker Hub</text>
<text x="366" y="1364" font-size="11" fill="#888780">→</text>
<text x="382" y="1364" font-size="11" font-weight="600" fill="#0C447C">Azure Container Registry (ACR)</text>

<text x="620" y="1364" font-size="11" fill="#444441">ELB DNS</text>
<text x="678" y="1364" font-size="11" fill="#888780">→</text>
<text x="694" y="1364" font-size="11" font-weight="600" fill="#0C447C">Azure Load Balancer DNS</text>

<text x="40"  y="1390" font-size="11" fill="#444441">AWS (cloud)</text>
<text x="120" y="1390" font-size="11" fill="#888780">→</text>
<text x="136" y="1390" font-size="11" font-weight="600" fill="#0C447C">Microsoft Azure</text>

<text x="290" y="1390" font-size="11" fill="#444441">VPC + Security Groups</text>
<text x="446" y="1390" font-size="11" fill="#888780">→</text>
<text x="462" y="1390" font-size="11" font-weight="600" fill="#0C447C">Azure VNet + NSGs</text>

<text x="620" y="1390" font-size="11" fill="#444441">IAM Roles / OIDC</text>
<text x="720" y="1390" font-size="11" fill="#888780">→</text>
<text x="736" y="1390" font-size="11" font-weight="600" fill="#0C447C">Azure AD + Managed Identity</text>

<text x="40"  y="1416" font-size="11" fill="#444441">Source control</text>
<text x="140" y="1416" font-size="11" fill="#888780">→</text>
<text x="156" y="1416" font-size="11" font-weight="600" fill="#2C2C2A">GitHub  (unchanged — already used)</text>

<text x="400" y="1416" font-size="11" fill="#888780">Unchanged tools:</text>
<text x="510" y="1416" font-size="11" font-weight="600" fill="#2C2C2A">Jenkins · ArgoCD · SonarQube · OWASP · Trivy · Helm · Prometheus · Grafana · Slack · Tomcat</text>

<!-- ══════ FOOTER ══════ -->
<line x1="20" y1="1452" x2="940" y2="1452" stroke="#D3D1C7" stroke-width="0.8"/>
<text x="480" y="1468" text-anchor="middle" font-size="11" fill="#888780">Microservices Project-1 — Azure + GitHub DevOps Pipeline Architecture</text>
</svg>
